<mxfile host="app.diagrams.net" agent="Mozilla/5.0 (Macintosh; Intel Mac OS X 10_15_7) AppleWebKit/605.1.15 (KHTML, like Gecko) Version/18.5 Safari/605.1.15" version="27.1.6">
  <diagram name="Page-1" id="mmypXaPOFrOKfEMIup9c">
    <mxGraphModel dx="1093" dy="785" grid="1" gridSize="10" guides="1" tooltips="1" connect="1" arrows="1" fold="1" page="1" pageScale="1" pageWidth="827" pageHeight="1169" math="0" shadow="0">
      <root>
        <mxCell id="0" />
        <mxCell id="1" parent="0" />
        <mxCell id="ddkVlbm5XYF5PTVihkaI-9" style="edgeStyle=orthogonalEdgeStyle;rounded=0;orthogonalLoop=1;jettySize=auto;html=1;curved=1;" parent="1" source="ddkVlbm5XYF5PTVihkaI-1" target="ddkVlbm5XYF5PTVihkaI-2" edge="1">
          <mxGeometry relative="1" as="geometry" />
        </mxCell>
        <mxCell id="ddkVlbm5XYF5PTVihkaI-10" value="HTTP API /&lt;div&gt;WebSosket&lt;/div&gt;" style="edgeLabel;html=1;align=center;verticalAlign=middle;resizable=0;points=[];" parent="ddkVlbm5XYF5PTVihkaI-9" vertex="1" connectable="0">
          <mxGeometry x="-0.0714" y="2" relative="1" as="geometry">
            <mxPoint as="offset" />
          </mxGeometry>
        </mxCell>
        <mxCell id="ddkVlbm5XYF5PTVihkaI-1" value="User Panel / Dashboard&lt;div&gt;VueJS&lt;/div&gt;" style="rounded=0;whiteSpace=wrap;html=1;" parent="1" vertex="1">
          <mxGeometry x="40" y="80" width="120" height="60" as="geometry" />
        </mxCell>
        <mxCell id="ddkVlbm5XYF5PTVihkaI-7" style="edgeStyle=orthogonalEdgeStyle;rounded=0;orthogonalLoop=1;jettySize=auto;html=1;entryX=0;entryY=0.5;entryDx=0;entryDy=0;" parent="1" source="ddkVlbm5XYF5PTVihkaI-2" target="ddkVlbm5XYF5PTVihkaI-3" edge="1">
          <mxGeometry relative="1" as="geometry">
            <Array as="points">
              <mxPoint x="380" y="350" />
            </Array>
          </mxGeometry>
        </mxCell>
        <mxCell id="ddkVlbm5XYF5PTVihkaI-8" value="CDP / Puppeteer" style="edgeLabel;html=1;align=center;verticalAlign=middle;resizable=0;points=[];" parent="ddkVlbm5XYF5PTVihkaI-7" vertex="1" connectable="0">
          <mxGeometry x="-0.1733" y="-1" relative="1" as="geometry">
            <mxPoint as="offset" />
          </mxGeometry>
        </mxCell>
        <mxCell id="ddkVlbm5XYF5PTVihkaI-2" value="Remote API&lt;div&gt;NodeJS&lt;/div&gt;" style="rounded=0;whiteSpace=wrap;html=1;" parent="1" vertex="1">
          <mxGeometry x="320" y="80" width="120" height="60" as="geometry" />
        </mxCell>
        <mxCell id="ddkVlbm5XYF5PTVihkaI-15" style="edgeStyle=orthogonalEdgeStyle;rounded=0;orthogonalLoop=1;jettySize=auto;html=1;exitX=1;exitY=0.5;exitDx=0;exitDy=0;" parent="1" source="ddkVlbm5XYF5PTVihkaI-11" target="ddkVlbm5XYF5PTVihkaI-23" edge="1">
          <mxGeometry relative="1" as="geometry">
            <mxPoint x="440" y="335" as="targetPoint" />
            <Array as="points">
              <mxPoint x="750" y="110" />
              <mxPoint x="750" y="550" />
            </Array>
          </mxGeometry>
        </mxCell>
        <mxCell id="ddkVlbm5XYF5PTVihkaI-16" value="Thread PostMessage" style="edgeLabel;html=1;align=center;verticalAlign=middle;resizable=0;points=[];" parent="ddkVlbm5XYF5PTVihkaI-15" vertex="1" connectable="0">
          <mxGeometry x="-0.2571" y="1" relative="1" as="geometry">
            <mxPoint as="offset" />
          </mxGeometry>
        </mxCell>
        <mxCell id="ddkVlbm5XYF5PTVihkaI-11" value="Remote API&lt;div&gt;NodeJS Child Process&lt;/div&gt;" style="rounded=0;whiteSpace=wrap;html=1;" parent="1" vertex="1">
          <mxGeometry x="550" y="80" width="190" height="60" as="geometry" />
        </mxCell>
        <mxCell id="ddkVlbm5XYF5PTVihkaI-12" style="edgeStyle=orthogonalEdgeStyle;rounded=0;orthogonalLoop=1;jettySize=auto;html=1;curved=1;" parent="1" source="ddkVlbm5XYF5PTVihkaI-2" target="ddkVlbm5XYF5PTVihkaI-11" edge="1">
          <mxGeometry relative="1" as="geometry" />
        </mxCell>
        <mxCell id="ddkVlbm5XYF5PTVihkaI-13" value="OS Pipe /&lt;div&gt;PostMessage&lt;/div&gt;" style="edgeLabel;html=1;align=center;verticalAlign=middle;resizable=0;points=[];" parent="ddkVlbm5XYF5PTVihkaI-12" vertex="1" connectable="0">
          <mxGeometry x="-0.1733" y="-1" relative="1" as="geometry">
            <mxPoint as="offset" />
          </mxGeometry>
        </mxCell>
        <mxCell id="ddkVlbm5XYF5PTVihkaI-18" value="" style="swimlane;startSize=0;dashed=1;" parent="1" vertex="1">
          <mxGeometry x="414" y="210" width="256" height="475" as="geometry" />
        </mxCell>
        <mxCell id="ddkVlbm5XYF5PTVihkaI-20" value="&lt;div&gt;Session 01&lt;/div&gt;" style="text;html=1;align=center;verticalAlign=middle;resizable=0;points=[];autosize=1;strokeColor=none;fillColor=none;" parent="ddkVlbm5XYF5PTVihkaI-18" vertex="1">
          <mxGeometry x="20" y="10" width="80" height="30" as="geometry" />
        </mxCell>
        <mxCell id="ddkVlbm5XYF5PTVihkaI-21" style="edgeStyle=orthogonalEdgeStyle;rounded=0;orthogonalLoop=1;jettySize=auto;html=1;exitX=0.5;exitY=1;exitDx=0;exitDy=0;" parent="ddkVlbm5XYF5PTVihkaI-18" source="ddkVlbm5XYF5PTVihkaI-3" target="ddkVlbm5XYF5PTVihkaI-23" edge="1">
          <mxGeometry relative="1" as="geometry">
            <mxPoint x="320" y="90" as="targetPoint" />
          </mxGeometry>
        </mxCell>
        <mxCell id="ddkVlbm5XYF5PTVihkaI-22" value="WebSocket" style="edgeLabel;html=1;align=center;verticalAlign=middle;resizable=0;points=[];" parent="ddkVlbm5XYF5PTVihkaI-21" vertex="1" connectable="0">
          <mxGeometry x="-0.0222" relative="1" as="geometry">
            <mxPoint as="offset" />
          </mxGeometry>
        </mxCell>
        <mxCell id="ddkVlbm5XYF5PTVihkaI-4" value="" style="swimlane;startSize=0;" parent="ddkVlbm5XYF5PTVihkaI-18" vertex="1">
          <mxGeometry x="30" y="60" width="200" height="150" as="geometry" />
        </mxCell>
        <mxCell id="ddkVlbm5XYF5PTVihkaI-3" value="Remote Code" style="rounded=0;whiteSpace=wrap;html=1;" parent="ddkVlbm5XYF5PTVihkaI-4" vertex="1">
          <mxGeometry x="40" y="50" width="120" height="60" as="geometry" />
        </mxCell>
        <mxCell id="ddkVlbm5XYF5PTVihkaI-5" value="&lt;div&gt;Browser / WhatsApp Web&lt;br&gt;&lt;/div&gt;" style="text;html=1;align=center;verticalAlign=middle;resizable=0;points=[];autosize=1;strokeColor=none;fillColor=none;" parent="ddkVlbm5XYF5PTVihkaI-4" vertex="1">
          <mxGeometry x="20" y="10" width="160" height="30" as="geometry" />
        </mxCell>
        <mxCell id="ddkVlbm5XYF5PTVihkaI-23" value="" style="swimlane;startSize=0;" parent="ddkVlbm5XYF5PTVihkaI-18" vertex="1">
          <mxGeometry x="30" y="265" width="200" height="135" as="geometry" />
        </mxCell>
        <mxCell id="ddkVlbm5XYF5PTVihkaI-24" value="NodeJS Worker Thread" style="text;html=1;align=center;verticalAlign=middle;resizable=0;points=[];autosize=1;strokeColor=none;fillColor=none;" parent="ddkVlbm5XYF5PTVihkaI-23" vertex="1">
          <mxGeometry y="10" width="150" height="30" as="geometry" />
        </mxCell>
        <mxCell id="ddkVlbm5XYF5PTVihkaI-17" value="Sandbox Executor&lt;div&gt;NodeJS VM&lt;/div&gt;" style="rounded=0;whiteSpace=wrap;html=1;" parent="ddkVlbm5XYF5PTVihkaI-23" vertex="1">
          <mxGeometry x="20" y="60" width="160" height="50" as="geometry" />
        </mxCell>
        <mxCell id="ddkVlbm5XYF5PTVihkaI-27" value="" style="swimlane;startSize=0;dashed=1;" parent="1" vertex="1">
          <mxGeometry x="70" y="210" width="260" height="475" as="geometry" />
        </mxCell>
        <mxCell id="ddkVlbm5XYF5PTVihkaI-28" value="&lt;div&gt;Debug Session 01&lt;/div&gt;" style="text;html=1;align=center;verticalAlign=middle;resizable=0;points=[];autosize=1;strokeColor=none;fillColor=none;" parent="ddkVlbm5XYF5PTVihkaI-27" vertex="1">
          <mxGeometry y="10" width="120" height="30" as="geometry" />
        </mxCell>
        <mxCell id="ddkVlbm5XYF5PTVihkaI-34" value="" style="swimlane;startSize=0;" parent="ddkVlbm5XYF5PTVihkaI-27" vertex="1">
          <mxGeometry x="30" y="265" width="200" height="135" as="geometry" />
        </mxCell>
        <mxCell id="ddkVlbm5XYF5PTVihkaI-35" value="NodeJS Worker Thread" style="text;html=1;align=center;verticalAlign=middle;resizable=0;points=[];autosize=1;strokeColor=none;fillColor=none;" parent="ddkVlbm5XYF5PTVihkaI-34" vertex="1">
          <mxGeometry y="10" width="150" height="30" as="geometry" />
        </mxCell>
        <mxCell id="ddkVlbm5XYF5PTVihkaI-36" value="Sandbox Executor&lt;div&gt;NodeJS VM&lt;/div&gt;" style="rounded=0;whiteSpace=wrap;html=1;" parent="ddkVlbm5XYF5PTVihkaI-34" vertex="1">
          <mxGeometry x="20" y="60" width="160" height="50" as="geometry" />
        </mxCell>
        <mxCell id="ddkVlbm5XYF5PTVihkaI-29" style="edgeStyle=orthogonalEdgeStyle;rounded=0;orthogonalLoop=1;jettySize=auto;html=1;entryX=0.5;entryY=0;entryDx=0;entryDy=0;exitX=0.5;exitY=1;exitDx=0;exitDy=0;" parent="1" source="ddkVlbm5XYF5PTVihkaI-1" target="ddkVlbm5XYF5PTVihkaI-34" edge="1">
          <mxGeometry relative="1" as="geometry">
            <mxPoint x="240" y="180" as="sourcePoint" />
            <mxPoint x="270" y="573" as="targetPoint" />
            <Array as="points">
              <mxPoint x="100" y="170" />
              <mxPoint x="200" y="170" />
            </Array>
          </mxGeometry>
        </mxCell>
        <mxCell id="ddkVlbm5XYF5PTVihkaI-30" value="WebSocket" style="edgeLabel;html=1;align=center;verticalAlign=middle;resizable=0;points=[];" parent="ddkVlbm5XYF5PTVihkaI-29" vertex="1" connectable="0">
          <mxGeometry x="-0.0222" relative="1" as="geometry">
            <mxPoint as="offset" />
          </mxGeometry>
        </mxCell>
        <mxCell id="ddkVlbm5XYF5PTVihkaI-37" style="edgeStyle=orthogonalEdgeStyle;rounded=0;orthogonalLoop=1;jettySize=auto;html=1;exitX=1;exitY=0.5;exitDx=0;exitDy=0;entryX=0.5;entryY=1;entryDx=0;entryDy=0;" parent="1" source="ddkVlbm5XYF5PTVihkaI-11" target="ddkVlbm5XYF5PTVihkaI-34" edge="1">
          <mxGeometry relative="1" as="geometry">
            <mxPoint x="440" y="335" as="targetPoint" />
            <Array as="points">
              <mxPoint x="760" y="110" />
              <mxPoint x="760" y="720" />
              <mxPoint x="200" y="720" />
            </Array>
          </mxGeometry>
        </mxCell>
        <mxCell id="ddkVlbm5XYF5PTVihkaI-38" value="Thread PostMessage" style="edgeLabel;html=1;align=center;verticalAlign=middle;resizable=0;points=[];" parent="ddkVlbm5XYF5PTVihkaI-37" vertex="1" connectable="0">
          <mxGeometry x="-0.2571" y="1" relative="1" as="geometry">
            <mxPoint as="offset" />
          </mxGeometry>
        </mxCell>
      </root>
    </mxGraphModel>
  </diagram>
</mxfile>
